<svg width="147" height="179" viewBox="0 0 147 179" fill="none" xmlns="http://www.w3.org/2000/svg">
<rect x="0.5" y="0.5" width="146" height="178" rx="7.5" stroke="#5940A3"/>
<path d="M27.9347 148V136.364H32.196C33.0218 136.364 33.7055 136.5 34.2472 136.773C34.7888 137.042 35.1941 137.407 35.4631 137.869C35.732 138.328 35.8665 138.845 35.8665 139.42C35.8665 139.905 35.7775 140.314 35.5994 140.648C35.4214 140.977 35.1828 141.242 34.8835 141.443C34.5881 141.64 34.2623 141.784 33.9062 141.875V141.989C34.2926 142.008 34.6695 142.133 35.0369 142.364C35.4081 142.591 35.715 142.915 35.9574 143.335C36.1998 143.756 36.321 144.267 36.321 144.869C36.321 145.464 36.1809 145.998 35.9006 146.472C35.6241 146.941 35.196 147.314 34.6165 147.591C34.0369 147.864 33.2964 148 32.3949 148H27.9347ZM29.6903 146.494H32.2244C33.0653 146.494 33.6676 146.331 34.0312 146.006C34.3949 145.68 34.5767 145.273 34.5767 144.784C34.5767 144.417 34.4839 144.08 34.2983 143.773C34.1127 143.466 33.8475 143.222 33.5028 143.04C33.1619 142.858 32.7566 142.767 32.2869 142.767H29.6903V146.494ZM29.6903 141.398H32.0426C32.4366 141.398 32.7907 141.322 33.1051 141.17C33.4233 141.019 33.6752 140.807 33.8608 140.534C34.0502 140.258 34.1449 139.932 34.1449 139.557C34.1449 139.076 33.9763 138.672 33.6392 138.347C33.3021 138.021 32.785 137.858 32.0881 137.858H29.6903V141.398ZM42.0284 148.176C41.1686 148.176 40.428 147.992 39.8068 147.625C39.1894 147.254 38.7121 146.733 38.375 146.062C38.0417 145.388 37.875 144.598 37.875 143.693C37.875 142.799 38.0417 142.011 38.375 141.33C38.7121 140.648 39.1818 140.116 39.7841 139.733C40.3902 139.35 41.0985 139.159 41.9091 139.159C42.4015 139.159 42.8788 139.241 43.3409 139.403C43.803 139.566 44.2178 139.822 44.5852 140.17C44.9527 140.519 45.2424 140.972 45.4545 141.528C45.6667 142.081 45.7727 142.754 45.7727 143.545V144.148H38.8352V142.875H44.108C44.108 142.428 44.017 142.032 43.8352 141.688C43.6534 141.339 43.3977 141.064 43.0682 140.864C42.7424 140.663 42.3598 140.562 41.9205 140.562C41.4432 140.562 41.0265 140.68 40.6705 140.915C40.3182 141.146 40.0455 141.449 39.8523 141.824C39.6629 142.195 39.5682 142.598 39.5682 143.034V144.028C39.5682 144.612 39.6705 145.108 39.875 145.517C40.0833 145.926 40.3731 146.239 40.7443 146.455C41.1155 146.667 41.5492 146.773 42.0455 146.773C42.3674 146.773 42.661 146.727 42.9261 146.636C43.1913 146.542 43.4205 146.402 43.6136 146.216C43.8068 146.03 43.9545 145.801 44.0568 145.528L45.6648 145.818C45.536 146.292 45.3049 146.706 44.9716 147.062C44.642 147.415 44.2273 147.689 43.7273 147.886C43.2311 148.08 42.6648 148.176 42.0284 148.176ZM51.7315 139.273V140.636H46.9645V139.273H51.7315ZM48.2429 137.182H49.9418V145.438C49.9418 145.767 49.991 146.015 50.0895 146.182C50.188 146.345 50.3149 146.456 50.4702 146.517C50.6293 146.574 50.8016 146.602 50.9872 146.602C51.1236 146.602 51.2429 146.593 51.3452 146.574C51.4474 146.555 51.527 146.54 51.5838 146.528L51.8906 147.932C51.7921 147.97 51.652 148.008 51.4702 148.045C51.2884 148.087 51.0611 148.11 50.7884 148.114C50.3414 148.121 49.9247 148.042 49.5384 147.875C49.152 147.708 48.8395 147.451 48.6009 147.102C48.3622 146.754 48.2429 146.316 48.2429 145.79V137.182ZM57.6847 139.273V140.636H52.9176V139.273H57.6847ZM54.196 137.182H55.8949V145.438C55.8949 145.767 55.9441 146.015 56.0426 146.182C56.1411 146.345 56.268 146.456 56.4233 146.517C56.5824 146.574 56.7547 146.602 56.9403 146.602C57.0767 146.602 57.196 146.593 57.2983 146.574C57.4006 146.555 57.4801 146.54 57.5369 146.528L57.8438 147.932C57.7453 147.97 57.6051 148.008 57.4233 148.045C57.2415 148.087 57.0142 148.11 56.7415 148.114C56.2945 148.121 55.8778 148.042 55.4915 147.875C55.1051 147.708 54.7926 147.451 54.554 147.102C54.3153 146.754 54.196 146.316 54.196 145.79V137.182ZM59.5639 148V139.273H61.2628V148H59.5639ZM60.4219 137.926C60.1264 137.926 59.8726 137.828 59.6605 137.631C59.4522 137.43 59.348 137.191 59.348 136.915C59.348 136.634 59.4522 136.396 59.6605 136.199C59.8726 135.998 60.1264 135.898 60.4219 135.898C60.7173 135.898 60.9692 135.998 61.1776 136.199C61.3897 136.396 61.4957 136.634 61.4957 136.915C61.4957 137.191 61.3897 137.43 61.1776 137.631C60.9692 137.828 60.7173 137.926 60.4219 137.926ZM65.2472 142.818V148H63.5483V139.273H65.179V140.693H65.2869C65.4877 140.231 65.8021 139.86 66.2301 139.58C66.6619 139.299 67.2055 139.159 67.8608 139.159C68.4555 139.159 68.9763 139.284 69.4233 139.534C69.8703 139.78 70.2169 140.148 70.4631 140.636C70.7093 141.125 70.8324 141.729 70.8324 142.449V148H69.1335V142.653C69.1335 142.021 68.9688 141.527 68.6392 141.17C68.3097 140.811 67.857 140.631 67.2812 140.631C66.8873 140.631 66.5369 140.716 66.2301 140.886C65.9271 141.057 65.6866 141.307 65.5085 141.636C65.3343 141.962 65.2472 142.356 65.2472 142.818ZM75.6506 148.193C75.0975 148.193 74.5975 148.091 74.1506 147.886C73.7036 147.678 73.3494 147.377 73.0881 146.983C72.8305 146.589 72.7017 146.106 72.7017 145.534C72.7017 145.042 72.7964 144.636 72.9858 144.318C73.1752 144 73.4309 143.748 73.7528 143.562C74.0748 143.377 74.4347 143.237 74.8324 143.142C75.2301 143.047 75.6354 142.975 76.0483 142.926C76.571 142.866 76.9953 142.816 77.321 142.778C77.6468 142.737 77.8835 142.67 78.0312 142.58C78.179 142.489 78.2528 142.341 78.2528 142.136V142.097C78.2528 141.6 78.1127 141.216 77.8324 140.943C77.5559 140.67 77.143 140.534 76.5938 140.534C76.0218 140.534 75.571 140.661 75.2415 140.915C74.9157 141.165 74.6903 141.443 74.5653 141.75L72.9688 141.386C73.1581 140.856 73.4347 140.428 73.7983 140.102C74.1657 139.773 74.5881 139.534 75.0653 139.386C75.5426 139.235 76.0445 139.159 76.571 139.159C76.9195 139.159 77.2888 139.201 77.679 139.284C78.0729 139.364 78.4403 139.511 78.7812 139.727C79.1259 139.943 79.4081 140.252 79.6278 140.653C79.8475 141.051 79.9574 141.568 79.9574 142.205V148H78.2983V146.807H78.2301C78.1203 147.027 77.9555 147.242 77.7358 147.455C77.5161 147.667 77.2339 147.843 76.8892 147.983C76.5445 148.123 76.1316 148.193 75.6506 148.193ZM76.0199 146.83C76.4896 146.83 76.8911 146.737 77.2244 146.551C77.5616 146.366 77.8172 146.123 77.9915 145.824C78.1695 145.521 78.2585 145.197 78.2585 144.852V143.727C78.1979 143.788 78.0805 143.845 77.9062 143.898C77.7358 143.947 77.5407 143.991 77.321 144.028C77.1013 144.062 76.8873 144.095 76.679 144.125C76.4706 144.152 76.2964 144.174 76.1562 144.193C75.8267 144.235 75.5256 144.305 75.2528 144.403C74.9839 144.502 74.768 144.644 74.6051 144.83C74.446 145.011 74.3665 145.254 74.3665 145.557C74.3665 145.977 74.5218 146.295 74.8324 146.511C75.143 146.723 75.5388 146.83 76.0199 146.83ZM86.5909 148V136.364H88.3466V141.42H94.1477V136.364H95.9091V148H94.1477V142.926H88.3466V148H86.5909ZM100.028 136.364V148H98.3295V136.364H100.028ZM107.842 144.381V139.273H109.547V148H107.876V146.489H107.786C107.585 146.955 107.263 147.343 106.82 147.653C106.38 147.96 105.833 148.114 105.178 148.114C104.617 148.114 104.121 147.991 103.689 147.744C103.261 147.494 102.924 147.125 102.678 146.636C102.435 146.148 102.314 145.544 102.314 144.824V139.273H104.013V144.619C104.013 145.214 104.178 145.687 104.507 146.04C104.837 146.392 105.265 146.568 105.791 146.568C106.109 146.568 106.426 146.489 106.74 146.33C107.058 146.17 107.321 145.93 107.53 145.608C107.742 145.286 107.846 144.877 107.842 144.381ZM111.966 148V136.364H113.665V140.688H113.767C113.866 140.506 114.008 140.295 114.193 140.057C114.379 139.818 114.636 139.61 114.966 139.432C115.295 139.25 115.731 139.159 116.273 139.159C116.977 139.159 117.606 139.337 118.159 139.693C118.712 140.049 119.146 140.562 119.46 141.233C119.778 141.903 119.938 142.71 119.938 143.653C119.938 144.597 119.78 145.405 119.466 146.08C119.152 146.75 118.72 147.267 118.17 147.631C117.621 147.991 116.994 148.17 116.29 148.17C115.759 148.17 115.326 148.081 114.989 147.903C114.655 147.725 114.394 147.517 114.205 147.278C114.015 147.04 113.869 146.828 113.767 146.642H113.625V148H111.966ZM113.631 143.636C113.631 144.25 113.72 144.788 113.898 145.25C114.076 145.712 114.333 146.074 114.67 146.335C115.008 146.593 115.42 146.722 115.909 146.722C116.417 146.722 116.841 146.587 117.182 146.318C117.523 146.045 117.78 145.676 117.955 145.21C118.133 144.744 118.222 144.22 118.222 143.636C118.222 143.061 118.134 142.544 117.96 142.085C117.79 141.627 117.532 141.265 117.188 141C116.847 140.735 116.42 140.602 115.909 140.602C115.417 140.602 115 140.729 114.659 140.983C114.322 141.237 114.066 141.591 113.892 142.045C113.718 142.5 113.631 143.03 113.631 143.636ZM125.607 148.176C124.747 148.176 124.006 147.992 123.385 147.625C122.768 147.254 122.29 146.733 121.953 146.062C121.62 145.388 121.453 144.598 121.453 143.693C121.453 142.799 121.62 142.011 121.953 141.33C122.29 140.648 122.76 140.116 123.362 139.733C123.968 139.35 124.677 139.159 125.487 139.159C125.98 139.159 126.457 139.241 126.919 139.403C127.381 139.566 127.796 139.822 128.163 140.17C128.531 140.519 128.821 140.972 129.033 141.528C129.245 142.081 129.351 142.754 129.351 143.545V144.148H122.413V142.875H127.686C127.686 142.428 127.595 142.032 127.413 141.688C127.232 141.339 126.976 141.064 126.646 140.864C126.321 140.663 125.938 140.562 125.499 140.562C125.021 140.562 124.605 140.68 124.249 140.915C123.896 141.146 123.624 141.449 123.43 141.824C123.241 142.195 123.146 142.598 123.146 143.034V144.028C123.146 144.612 123.249 145.108 123.453 145.517C123.661 145.926 123.951 146.239 124.322 146.455C124.694 146.667 125.127 146.773 125.624 146.773C125.946 146.773 126.239 146.727 126.504 146.636C126.769 146.542 126.999 146.402 127.192 146.216C127.385 146.03 127.533 145.801 127.635 145.528L129.243 145.818C129.114 146.292 128.883 146.706 128.55 147.062C128.22 147.415 127.805 147.689 127.305 147.886C126.809 148.08 126.243 148.176 125.607 148.176ZM132.798 145.04L132.787 142.966H133.082L136.56 139.273H138.594L134.628 143.477H134.361L132.798 145.04ZM131.236 148V136.364H132.935V148H131.236ZM136.747 148L133.622 143.852L134.793 142.665L138.832 148H136.747ZM62.2159 167V155.364H63.9716V160.42H69.7727V155.364H71.5341V167H69.7727V161.926H63.9716V167H62.2159ZM77.7159 167.176C76.8561 167.176 76.1155 166.992 75.4943 166.625C74.8769 166.254 74.3996 165.733 74.0625 165.062C73.7292 164.388 73.5625 163.598 73.5625 162.693C73.5625 161.799 73.7292 161.011 74.0625 160.33C74.3996 159.648 74.8693 159.116 75.4716 158.733C76.0777 158.35 76.786 158.159 77.5966 158.159C78.089 158.159 78.5663 158.241 79.0284 158.403C79.4905 158.566 79.9053 158.822 80.2727 159.17C80.6402 159.519 80.9299 159.972 81.142 160.528C81.3542 161.081 81.4602 161.754 81.4602 162.545V163.148H74.5227V161.875H79.7955C79.7955 161.428 79.7045 161.032 79.5227 160.688C79.3409 160.339 79.0852 160.064 78.7557 159.864C78.4299 159.663 78.0473 159.562 77.608 159.562C77.1307 159.562 76.714 159.68 76.358 159.915C76.0057 160.146 75.733 160.449 75.5398 160.824C75.3504 161.195 75.2557 161.598 75.2557 162.034V163.028C75.2557 163.612 75.358 164.108 75.5625 164.517C75.7708 164.926 76.0606 165.239 76.4318 165.455C76.803 165.667 77.2367 165.773 77.733 165.773C78.0549 165.773 78.3485 165.727 78.6136 165.636C78.8788 165.542 79.108 165.402 79.3011 165.216C79.4943 165.03 79.642 164.801 79.7443 164.528L81.3523 164.818C81.2235 165.292 80.9924 165.706 80.6591 166.062C80.3295 166.415 79.9148 166.689 79.4148 166.886C78.9186 167.08 78.3523 167.176 77.7159 167.176ZM83.4815 167V155.364H85.1804V159.688H85.2827C85.3812 159.506 85.5232 159.295 85.7088 159.057C85.8944 158.818 86.152 158.61 86.4815 158.432C86.8111 158.25 87.2467 158.159 87.7884 158.159C88.4929 158.159 89.1217 158.337 89.6747 158.693C90.2277 159.049 90.6615 159.562 90.9759 160.233C91.294 160.903 91.4531 161.71 91.4531 162.653C91.4531 163.597 91.2959 164.405 90.9815 165.08C90.6671 165.75 90.2353 166.267 89.6861 166.631C89.1368 166.991 88.5099 167.17 87.8054 167.17C87.2751 167.17 86.8414 167.081 86.5043 166.903C86.1709 166.725 85.9096 166.517 85.7202 166.278C85.5308 166.04 85.3849 165.828 85.2827 165.642H85.1406V167H83.4815ZM85.1463 162.636C85.1463 163.25 85.2353 163.788 85.4134 164.25C85.5914 164.712 85.849 165.074 86.1861 165.335C86.5232 165.593 86.9361 165.722 87.4247 165.722C87.9323 165.722 88.3565 165.587 88.6974 165.318C89.0384 165.045 89.2959 164.676 89.4702 164.21C89.6482 163.744 89.7372 163.22 89.7372 162.636C89.7372 162.061 89.6501 161.544 89.4759 161.085C89.3054 160.627 89.0478 160.265 88.7031 160C88.3622 159.735 87.9361 159.602 87.4247 159.602C86.9323 159.602 86.5156 159.729 86.1747 159.983C85.8376 160.237 85.5819 160.591 85.4077 161.045C85.2334 161.5 85.1463 162.03 85.1463 162.636ZM95.9006 167.193C95.3475 167.193 94.8475 167.091 94.4006 166.886C93.9536 166.678 93.5994 166.377 93.3381 165.983C93.0805 165.589 92.9517 165.106 92.9517 164.534C92.9517 164.042 93.0464 163.636 93.2358 163.318C93.4252 163 93.6809 162.748 94.0028 162.562C94.3248 162.377 94.6847 162.237 95.0824 162.142C95.4801 162.047 95.8854 161.975 96.2983 161.926C96.821 161.866 97.2453 161.816 97.571 161.778C97.8968 161.737 98.1335 161.67 98.2812 161.58C98.429 161.489 98.5028 161.341 98.5028 161.136V161.097C98.5028 160.6 98.3627 160.216 98.0824 159.943C97.8059 159.67 97.393 159.534 96.8438 159.534C96.2718 159.534 95.821 159.661 95.4915 159.915C95.1657 160.165 94.9403 160.443 94.8153 160.75L93.2188 160.386C93.4081 159.856 93.6847 159.428 94.0483 159.102C94.4157 158.773 94.8381 158.534 95.3153 158.386C95.7926 158.235 96.2945 158.159 96.821 158.159C97.1695 158.159 97.5388 158.201 97.929 158.284C98.3229 158.364 98.6903 158.511 99.0312 158.727C99.3759 158.943 99.6581 159.252 99.8778 159.653C100.098 160.051 100.207 160.568 100.207 161.205V167H98.5483V165.807H98.4801C98.3703 166.027 98.2055 166.242 97.9858 166.455C97.7661 166.667 97.4839 166.843 97.1392 166.983C96.7945 167.123 96.3816 167.193 95.9006 167.193ZM96.2699 165.83C96.7396 165.83 97.1411 165.737 97.4744 165.551C97.8116 165.366 98.0672 165.123 98.2415 164.824C98.4195 164.521 98.5085 164.197 98.5085 163.852V162.727C98.4479 162.788 98.3305 162.845 98.1562 162.898C97.9858 162.947 97.7907 162.991 97.571 163.028C97.3513 163.062 97.1373 163.095 96.929 163.125C96.7206 163.152 96.5464 163.174 96.4062 163.193C96.0767 163.235 95.7756 163.305 95.5028 163.403C95.2339 163.502 95.018 163.644 94.8551 163.83C94.696 164.011 94.6165 164.254 94.6165 164.557C94.6165 164.977 94.7718 165.295 95.0824 165.511C95.393 165.723 95.7888 165.83 96.2699 165.83ZM102.47 167V158.273H104.101V159.693H104.209C104.391 159.212 104.688 158.837 105.101 158.568C105.514 158.295 106.008 158.159 106.584 158.159C107.167 158.159 107.656 158.295 108.05 158.568C108.447 158.841 108.741 159.216 108.93 159.693H109.021C109.23 159.227 109.561 158.856 110.016 158.58C110.47 158.299 111.012 158.159 111.641 158.159C112.432 158.159 113.078 158.407 113.578 158.903C114.082 159.4 114.334 160.148 114.334 161.148V167H112.635V161.307C112.635 160.716 112.474 160.288 112.152 160.023C111.83 159.758 111.446 159.625 110.999 159.625C110.446 159.625 110.016 159.795 109.709 160.136C109.402 160.473 109.249 160.907 109.249 161.438V167H107.555V161.199C107.555 160.725 107.408 160.345 107.112 160.057C106.817 159.769 106.432 159.625 105.959 159.625C105.637 159.625 105.339 159.71 105.067 159.881C104.798 160.047 104.58 160.28 104.413 160.58C104.25 160.879 104.169 161.225 104.169 161.619V167H102.47ZM116.611 167V158.273H118.241V159.693H118.349C118.531 159.212 118.829 158.837 119.241 158.568C119.654 158.295 120.149 158.159 120.724 158.159C121.308 158.159 121.796 158.295 122.19 158.568C122.588 158.841 122.882 159.216 123.071 159.693H123.162C123.37 159.227 123.702 158.856 124.156 158.58C124.611 158.299 125.152 158.159 125.781 158.159C126.573 158.159 127.219 158.407 127.719 158.903C128.223 159.4 128.474 160.148 128.474 161.148V167H126.776V161.307C126.776 160.716 126.615 160.288 126.293 160.023C125.971 159.758 125.586 159.625 125.139 159.625C124.586 159.625 124.156 159.795 123.849 160.136C123.543 160.473 123.389 160.907 123.389 161.438V167H121.696V161.199C121.696 160.725 121.548 160.345 121.253 160.057C120.957 159.769 120.573 159.625 120.099 159.625C119.777 159.625 119.48 159.71 119.207 159.881C118.938 160.047 118.721 160.28 118.554 160.58C118.391 160.879 118.31 161.225 118.31 161.619V167H116.611ZM134.513 167.176C133.653 167.176 132.912 166.992 132.291 166.625C131.674 166.254 131.196 165.733 130.859 165.062C130.526 164.388 130.359 163.598 130.359 162.693C130.359 161.799 130.526 161.011 130.859 160.33C131.196 159.648 131.666 159.116 132.268 158.733C132.875 158.35 133.583 158.159 134.393 158.159C134.886 158.159 135.363 158.241 135.825 158.403C136.287 158.566 136.702 158.822 137.07 159.17C137.437 159.519 137.727 159.972 137.939 160.528C138.151 161.081 138.257 161.754 138.257 162.545V163.148H131.32V161.875H136.592C136.592 161.428 136.501 161.032 136.32 160.688C136.138 160.339 135.882 160.064 135.553 159.864C135.227 159.663 134.844 159.562 134.405 159.562C133.928 159.562 133.511 159.68 133.155 159.915C132.803 160.146 132.53 160.449 132.337 160.824C132.147 161.195 132.053 161.598 132.053 162.034V163.028C132.053 163.612 132.155 164.108 132.359 164.517C132.568 164.926 132.857 165.239 133.229 165.455C133.6 165.667 134.034 165.773 134.53 165.773C134.852 165.773 135.145 165.727 135.411 165.636C135.676 165.542 135.905 165.402 136.098 165.216C136.291 165.03 136.439 164.801 136.541 164.528L138.149 164.818C138.02 165.292 137.789 165.706 137.456 166.062C137.126 166.415 136.712 166.689 136.212 166.886C135.715 167.08 135.149 167.176 134.513 167.176Z" fill="#5940A3"/>
</svg>
